<?xml version="1.0" encoding="UTF-8"?>
<svg width="128px" height="127px" viewBox="0 0 128 127" version="1.1" xmlns="http://www.w3.org/2000/svg" xmlns:xlink="http://www.w3.org/1999/xlink">
    <!-- Generator: Sketch 49.1 (51147) - http://www.bohemiancoding.com/sketch -->
    <title>🔥 Logo/Symbol+Text/White</title>
    <desc>Created with Sketch.</desc>
    <defs></defs>
    <g id="🔥-Logo/Symbol+Text/White" stroke="none" stroke-width="1" fill="none" fill-rule="evenodd">
        <g id="Logo" transform="translate(1.000000, 2.000000)" fill="#FFFFFF" fill-rule="nonzero">
            <path d="M34.0544892,90.1476234 C37.2028725,87.9279316 41.3707975,87.7695642 44.679907,89.7438926 C47.9890166,91.718221 49.8145365,95.4524834 49.3337604,99.2637612 L49.3337604,105.71974 C49.3337604,106.849736 48.4137958,107.765779 47.2789619,107.765779 C46.144128,107.765779 45.2241634,106.849736 45.2241634,105.71974 L45.2241634,98.0602088 C45.2277338,97.9377824 45.2422544,97.8159165 45.2675528,97.6960571 C44.9887381,94.8939919 42.6651639,92.7329924 39.8386431,92.6469947 C37.0121224,92.560997 34.5603802,94.576706 34.1102756,97.3565936 L34.1102756,105.71974 C34.1102756,106.849736 33.190311,107.765779 32.0554771,107.765779 C30.9206432,107.765779 30.0006785,106.849736 30.0006785,105.71974 L30.0006785,99.2637612 C29.8992986,98.4604371 29.8992986,97.6476363 30.0006785,96.8443123 L30.0006785,90.400678 C30.0311488,89.3413092 30.867847,88.4798679 31.9301397,88.4141583 C32.9924324,88.3484487 33.9297703,89.1001545 34.0916802,90.1476234 L34.0544892,90.1476234 Z M56.9455028,90.1476234 C58.5726081,88.9880584 60.5232417,88.3643585 62.5241414,88.363897 C67.9158862,88.363897 72.2867589,92.716137 72.2867589,98.0848971 C72.2867589,103.453657 67.9158862,107.805897 62.5241414,107.805897 C61.137832,107.808329 59.7674768,107.511421 58.5075216,106.935636 C58.908164,105.043685 60.582317,103.687948 62.5241414,103.682959 C65.6224377,103.706346 68.1557042,101.229268 68.1884728,98.1442632 C68.2212415,95.0592587 65.7411584,92.5293822 62.6430584,92.4875119 C59.5449585,92.4456415 56.9968331,94.9075624 56.9455028,97.9923161 L56.9455028,120.489488 C56.9455028,121.619484 56.0255381,122.535527 54.8907043,122.535527 C53.7558704,122.535527 52.8359058,121.619484 52.8359058,120.489488 L52.8359058,90.400678 C52.863675,89.3404102 53.6993925,88.4764689 54.7624113,88.4091106 C55.8254301,88.3417524 56.7643878,89.0932412 56.9269074,90.1414513 L56.9455028,90.1476234 Z M4.10959708,90.1476234 C5.73670236,88.9880584 7.68733591,88.3643585 9.68823565,88.363897 C15.0799804,88.363897 19.4508532,92.716137 19.4508532,98.0848971 C19.4508532,103.453657 15.0799804,107.805897 9.68823565,107.805897 C8.30192628,107.808329 6.93157107,107.511421 5.67161588,106.935636 C6.07225827,105.043685 7.7464112,103.687948 9.68823565,103.682959 C12.7865319,103.706346 15.3197984,101.229268 15.3525671,98.1442632 C15.3853357,95.0592587 12.9052526,92.5293822 9.80715265,92.4875119 C6.70905271,92.4456415 4.16092732,94.9075624 4.10959708,97.9923161 L4.10959708,120.489488 C4.10959706,121.619484 3.18963243,122.535527 2.05479854,122.535527 C0.919964655,122.535527 1.69103428e-08,121.619484 0,120.489488 L0,90.400678 C0.0277692466,89.3404102 0.863486782,88.4764689 1.92650556,88.4091106 C2.98952433,88.3417524 3.92848208,89.0932412 4.09100162,90.1414513 L4.10959708,90.1476234 Z M77.8034126,73.6250093 C78.9365348,73.6250093 79.8551119,74.5396706 79.8551119,75.6679624 L79.8551119,105.71974 C79.8551119,106.849736 78.9351473,107.765779 77.8003134,107.765779 C76.6654795,107.765779 75.7455148,106.849736 75.7455148,105.71974 L75.7455148,75.6679624 C75.7455123,75.1250665 75.9625236,74.6044958 76.3486335,74.2211899 C76.7347434,73.837884 77.258195,73.6233692 77.8034126,73.6250093 Z M24.3786506,88.3515529 C25.5117728,88.3515529 26.4303499,89.2662141 26.4303499,90.3945059 L26.4303499,105.71974 C26.3704979,106.802781 25.471073,107.650444 24.3817498,107.650444 C23.2924266,107.650444 22.3930018,106.802781 22.3331497,105.71974 L22.3331497,90.400678 C22.3315033,89.8588524 22.5460865,89.3385676 22.9296928,88.9542816 C23.3132992,88.5699955 23.8345053,88.3531873 24.3786506,88.3515529 Z M24.3786506,81.2845402 C24.922795,81.2845402 25.4446528,81.4997792 25.829421,81.8829072 C26.2141893,82.2660353 26.4303499,82.7856684 26.4303499,83.3274932 L26.4303499,83.3583535 C26.4303499,84.4883497 25.5103852,85.4043926 24.3755513,85.4043926 C23.2407174,85.4043926 22.3207528,84.4883497 22.3207528,83.3583535 L22.3207528,83.3274932 C22.3207503,82.7845973 22.5377615,82.2640266 22.9238714,81.8807207 C23.3099813,81.4974148 23.8334329,81.2829 24.3786506,81.2845402 Z M93.0640883,107.824413 C89.1088488,107.854421 85.5262793,105.505096 83.9917474,101.875086 C82.4572154,98.2450759 83.2740036,94.0518108 86.0601456,91.2562464 C88.8462877,88.460682 93.0511349,87.6153292 96.7083151,89.1155122 C100.365495,90.6156953 102.752209,94.1649204 102.752324,98.1034132 C102.755779,103.4397 98.4231831,107.773148 93.0640883,107.793553 L93.0640883,107.824413 Z M93.0640883,103.701475 C95.3418524,103.71898 97.4051269,102.36621 98.2889977,100.275805 C99.1728685,98.1853994 98.7026407,95.7705215 97.0982218,94.1605165 C95.4938029,92.5505115 93.0723023,92.063593 90.9661626,92.927474 C88.860023,93.791355 87.4855176,95.8352916 87.4854498,98.1034132 C87.4821571,99.5787906 88.0684509,100.994864 89.1150057,102.039273 C90.1615605,103.083682 91.582391,103.670618 93.0640883,103.670615 L93.0640883,103.701475 Z M120.232058,90.2772367 C120.225802,89.7747464 120.424928,89.2913057 120.783724,88.9378989 C121.133579,88.5816238 121.612879,88.380792 122.113299,88.380792 C122.613719,88.380792 123.093019,88.5816238 123.442875,88.9378989 C123.80167,89.2913057 124.000797,89.7747464 123.99454,90.2772367 L123.99454,113.465679 C124.073834,115.883365 123.287311,118.250375 121.775482,120.143852 C120.070417,121.98437 117.670218,123.03125 115.155497,123.03125 C112.640776,123.03125 110.240578,121.98437 108.535513,120.143852 C107.023512,118.233766 106.237606,115.85331 106.316454,113.422475 C106.310198,112.919985 106.509324,112.436544 106.86812,112.083137 C107.217975,111.726862 107.697275,111.52603 108.197695,111.52603 C108.698115,111.52603 109.177415,111.726862 109.527271,112.083137 C109.886066,112.436544 110.085193,112.919985 110.078936,113.422475 C110.032853,114.840179 110.433863,116.236653 111.225656,117.4158 C112.204363,118.57244 113.64586,119.239988 115.164795,119.239988 C116.68373,119.239988 118.125227,118.57244 119.103933,117.4158 C119.897791,116.253778 120.299432,114.870238 120.250654,113.465679 L120.250654,105.195114 C119.167985,106.672295 117.47993,107.449975 115.18649,107.528154 C113.260813,107.633516 111.351739,107.12314 109.738019,106.071547 C107.052008,104.285764 105.709002,101.5824 105.709002,97.9614558 L105.709002,90.2463764 C105.702746,89.743886 105.901872,89.2604454 106.260668,88.9070386 C106.605859,88.5460392 107.086596,88.3447221 107.587144,88.3515529 C108.095684,88.3408218 108.585585,88.5422124 108.938414,88.9070386 C109.29721,89.2604454 109.496336,89.743886 109.49008,90.2463764 L109.49008,97.9614558 C109.49008,100.640131 110.535558,102.425915 112.626514,103.318807 C113.337526,103.612766 114.100517,103.761776 114.870367,103.757023 C115.632347,103.763393 116.387559,103.614255 117.089425,103.318807 C118.097108,102.953733 118.95268,102.262631 119.519232,101.356091 C120.042314,100.245443 120.293,99.0269702 120.250654,97.8009821 L120.232058,90.2772367 Z" id="text"></path>
            <path d="M64.8213294,48.6521009 L50.1212705,58.4069096 C39.3887706,65.6697094 25.2965694,65.7887776 14.4408327,58.7083817 C3.58509596,51.6279858 -1.88622785,38.7490741 0.587835096,26.0999053 C3.06189804,13.4507365 12.9918223,3.53411286 25.7296876,0.991728976 C38.467553,-1.55065491 51.4930074,3.78424457 58.7091996,14.49931 L59.2065701,15.2665421 L73.9066289,5.51173342 C84.6420162,-1.73659723 98.7270808,-1.84438237 109.573992,5.23879101 C120.420904,12.3219644 125.885478,25.1959166 123.411839,37.8392754 C120.9382,50.4826342 111.015328,60.3960999 98.2843239,62.9429714 C85.55332,65.4898429 72.5308092,60.1666626 65.3076471,49.4631749 L64.8213294,48.6521009 Z M75.984532,41.2428305 C76.1687432,41.4839606 76.3455861,41.7287442 76.5150604,41.9771812 C80.1479019,47.3613994 86.4013995,50.4146945 92.9199213,49.9869199 C99.4384431,49.5591453 105.23167,45.7152901 108.117351,39.9032973 C111.003031,34.0913046 110.542761,27.1941543 106.909919,21.8099363 C106.740445,21.5541922 106.563602,21.3057552 106.379391,21.0646251 L75.984532,41.2428305 Z M93.0277581,13.6991965 C89.0448683,13.3720294 85.064891,14.3625764 81.7098181,16.5160345 L31.0001413,50.1756047 C34.9842217,50.5117171 38.9682874,49.5288289 42.3291341,47.3806876 L93.0277581,13.6991965 Z M48.0433675,22.6319707 C47.8591562,22.3908406 47.6823134,22.146057 47.512839,21.89762 C41.8969527,13.57434 30.5402564,11.3415801 22.146948,16.910611 C13.7536396,22.4796419 11.5020941,33.741585 17.1179805,42.0648649 C17.2874548,42.320609 17.4642977,42.569046 17.6485089,42.8101761 L48.0433675,22.6319707 Z" id="symbol"></path>
        </g>
    </g>
</svg>