<?xml version="1.0" encoding="UTF-8"?>
<svg width="128px" height="66px" viewBox="0 0 128 66" version="1.1" xmlns="http://www.w3.org/2000/svg" xmlns:xlink="http://www.w3.org/1999/xlink">
    <!-- Generator: Sketch 49.1 (51147) - http://www.bohemiancoding.com/sketch -->
    <title>🔥 Logo/Symbol/White</title>
    <desc>Created with Sketch.</desc>
    <defs></defs>
    <g id="🔥-Logo/Symbol/White" stroke="none" stroke-width="1" fill="none" fill-rule="evenodd">
        <path d="M66.8213294,49.6521009 L52.1212705,59.4069096 C41.3887706,66.6697094 27.2965694,66.7887776 16.4408327,59.7083817 C5.58509596,52.6279858 0.113772154,39.7490741 2.5878351,27.0999053 C5.06189804,14.4507365 14.9918223,4.53411286 27.7296876,1.99172898 C40.467553,-0.550654907 53.4930074,4.78424457 60.7091996,15.49931 L61.2065701,16.2665421 L75.9066289,6.51173342 C86.6420162,-0.736597233 100.727081,-0.844382367 111.573992,6.23879101 C122.420904,13.3219644 127.885478,26.1959166 125.411839,38.8392754 C122.9382,51.4826342 113.015328,61.3960999 100.284324,63.9429714 C87.55332,66.4898429 74.5308092,61.1666626 67.3076471,50.4631749 L66.8213294,49.6521009 Z M77.984532,42.2428305 C78.1687432,42.4839606 78.3455861,42.7287442 78.5150604,42.9771812 C82.1479019,48.3613994 88.4013995,51.4146945 94.9199213,50.9869199 C101.438443,50.5591453 107.23167,46.7152901 110.117351,40.9032973 C113.003031,35.0913046 112.542761,28.1941543 108.909919,22.8099363 C108.740445,22.5541922 108.563602,22.3057552 108.379391,22.0646251 L77.984532,42.2428305 Z M95.0277581,14.6991965 C91.0448683,14.3720294 87.064891,15.3625764 83.7098181,17.5160345 L33.0001413,51.1756047 C36.9842217,51.5117171 40.9682874,50.5288289 44.3291341,48.3806876 L95.0277581,14.6991965 Z M50.0433675,23.6319707 C49.8591562,23.3908406 49.6823134,23.146057 49.512839,22.89762 C43.8969527,14.57434 32.5402564,12.3415801 24.146948,17.910611 C15.7536396,23.4796419 13.5020941,34.741585 19.1179805,43.0648649 C19.2874548,43.320609 19.4642977,43.569046 19.6485089,43.8101761 L50.0433675,23.6319707 Z" id="Logo" fill="#FFFFFF" fill-rule="nonzero"></path>
    </g>
</svg>